PathFileType	4	(X/Y/Z)	/Users/niels/Desktop/University/Third Semester/Perception and Action/Exam/Gymnastics Motion Tracking/Code for Gym Tracking/Analyzed Data/Webcam_Backflip/id2006_1_trajectory_Sports2D/id2006_1_trajectory_Sports2D_px_person00.trc
DataRate	CameraRate	NumFrames	NumMarkers	Units	OrigDataRate	OrigDataStartFrame	OrigNumFrames
29.797297297297295	29.797297297297295	8	22	m	29.797297297297295	55	148
Frame#	Time	Hip			RHip			RKnee			RAnkle			RBigToe			RSmallToe			RHeel			LHip			LKnee			LAnkle			LBigToe			LSmallToe			LHeel			Neck			Head			Nose			RShoulder			RElbow			RWrist			LShoulder			LElbow			LWrist		
		X1	Y1	Z1	X2	Y2	Z2	X3	Y3	Z3	X4	Y4	Z4	X5	Y5	Z5	X6	Y6	Z6	X7	Y7	Z7	X8	Y8	Z8	X9	Y9	Z9	X10	Y10	Z10	X11	Y11	Z11	X12	Y12	Z12	X13	Y13	Z13	X14	Y14	Z14	X15	Y15	Z15	X16	Y16	Z16	X17	Y17	Z17	X18	Y18	Z18	X19	Y19	Z19	X20	Y20	Z20	X21	Y21	Z21	X22	Y22	Z22
55	1.8458049886621315	0.8343871892324172	-0.7358813785329844	0.0	0.7864404999303837	-0.7306019566469361	0.0	0.807309335467674	-1.0633398864439236	0.0	0.6281055170555653	-0.9744915917136138	0.0	0.4885078124999999	-1.2011458740234375	0.0			0.0	0.6023291015625004	-0.9143344726562503	0.0	0.8680142087513397	-0.7502737744288025	0.0	0.8504373613363294	-1.0558652019169856	0.0	0.6682513605524015	-1.016778892708269	0.0			0.0	0.6565966796875001	-1.0058969726562503	0.0	0.6037451198037266	-0.986671384420294	0.0	1.0639449172893487	-0.2827913830121174	0.0	1.189691269494573	-0.11103195647629195	0.0	1.1587192537981323	-0.21660841075941678	0.0	0.972189809270726	-0.3021597024514134	0.0	0.729403785085048	-0.42801272505780474	0.0	0.5359764363907465	-0.6172981372545094	0.0	1.0962189972902177	-0.37954401586232517	0.0	1.0435536864397652	-0.5179267361681094	0.0	0.9877026464792639	-0.7421318761843627	0.0
56	1.8793650793650793	0.8237771333721443	-0.7390225256251706	0.0	0.7741775078573148	-0.733065557478477	0.0	0.7963334329324016	-1.0663543245665326	0.0	0.6281045426996136	-0.9744924364420099	0.0	0.4885078124999999	-1.2011458740234375	0.0			0.0	0.6023291015625004	-0.9143344726562503	0.0	0.8576180341117716	-0.7531689926121731	0.0	0.8440660100090994	-1.058754944398822	0.0	0.6599001533071035	-1.0197246590747004	0.0			0.0	0.6565966796875001	-1.0058969726562503	0.0	0.6037440427393512	-0.9866713793229841	0.0	1.0761990272936897	-0.297948827471529	0.0	1.2118874366937156	-0.13256496766984766	0.0	1.1766559104299303	-0.23625884103416486	0.0	0.9850157785560409	-0.3145946478174548	0.0	0.733067986479556	-0.4267549628895975	0.0	0.5228644466376172	-0.6017854454642337	0.0	1.1047839364533334	-0.3938684189003178	0.0	1.0291073976684237	-0.5253282850346056	0.0	0.9877032192716557	-0.7421297464324518	0.0
57	1.9129251700680272	0.8138214145170781	-0.7432436710376443	0.0	0.763466475251381	-0.7370196146512042	0.0	0.7844521803214789	-1.069693695957906	0.0	0.6281031068053661	-0.9744936817410322	0.0	0.4885078124999999	-1.2011458740234375	0.0			0.0	0.6023291015625004	-0.9143344726562503	0.0	0.8482574475547262	-0.7576135261576179	0.0	0.839138837395662	-1.062858530374914	0.0	0.6576449789109887	-1.0232066344996582	0.0			0.0	0.6565966796875001	-1.0058969726562503	0.0	0.6037424550347008	-0.9866713718090203	0.0	1.0866891286703346	-0.3140193758976554	0.0	1.2326408499358394	-0.15561805435353676	0.0	1.1931218356004587	-0.2574617503690253	0.0	0.9961577991476305	-0.32830603415515386	0.0	0.7380628980086106	-0.42900635755117666	0.0	0.5148611738972867	-0.591055069868258	0.0	1.1098209333108089	-0.40938923696605833	0.0	1.0040941881850853	-0.5357801543091206	0.0	0.9877032136187774	-0.7421285043646232	0.0
58	1.946485260770975	0.8046255923443408	-0.7477314180900794	0.0	0.7540346175171647	-0.7415380586945887	0.0	0.7727833699527287	-1.0728946037215386	0.0	0.6281014913969473	-0.9744950834412897	0.0	0.4885078124999999	-1.2011458740234375	0.0			0.0	0.6023291015625004	-0.9143344726562503	0.0	0.8399138904045833	-0.7628711052057441	0.0	0.8351335800408638	-1.0671860224430452	0.0	0.6585309474005727	-1.026016507058518	0.0			0.0	0.6565966796875001	-1.0058969726562503	0.0	0.6037406680961637	-0.9866713633521631	0.0	1.0954826653686738	-0.3299383184549152	0.0	1.2514290226363758	-0.17854607221209018	0.0	1.207497768579127	-0.2792378335661511	0.0	1.0053450338941505	-0.3425179434141973	0.0	0.743556214378696	-0.43424268623913553	0.0	0.5106500061223307	-0.5853717090352545	0.0	1.1122941557929789	-0.4246173196903592	0.0	0.9764026333750135	-0.5467618416208812	0.0	0.9877024434019369	-0.7421278284220322	0.0
59	1.980045351473923	0.796449204737578	-0.7517348004141079	0.0	0.7457438750089024	-0.7457516850661603	0.0	0.7619799290579399	-1.0754096699916291	0.0	0.6281004970062259	-0.9744959478203135	0.0	0.4885078124999999	-1.2011458740234375	0.0			0.0	0.6023291015625004	-0.9143344726562503	0.0	0.8328454007740221	-0.7680837683696139	0.0	0.831627076641334	-1.0707676083501272	0.0	0.660475220275566	-1.0277887580033516	0.0			0.0	0.6565966796875001	-1.0058969726562503	0.0	0.6037395665227713	-0.9866713581388619	0.0	1.1026553761144577	-0.34467828707472115	0.0	1.2678863441361699	-0.19990556292690217	0.0	1.2194889426334903	-0.3003873758368425	0.0	1.012506715505021	-0.3565013543677472	0.0	0.7487960571354958	-0.4417338594652812	0.0	0.5090393233961932	-0.5843259839804618	0.0	1.1131621287820104	-0.4381287526145472	0.0	0.9515349863100576	-0.5562298501514943	0.0	0.9877006451211197	-0.7421273749442489	0.0
60	2.0136054421768708	0.7895544116530671	-0.7548650942986344	0.0	0.7385841157507202	-0.7491951756497582	0.0	0.752292369644235	-1.0769401073891904	0.0	0.6281016569804475	-0.9744949455667166	0.0	0.4885078124999999	-1.2011458740234375	0.0			0.0	0.6023291015625004	-0.9143344726562503	0.0	0.8273858624937026	-0.772612618353902	0.0	0.828451563862826	-1.0730559272155604	0.0	0.66233386726997	-1.0286505101228824	0.0			0.0	0.6565966796875001	-1.0058969726562503	0.0	0.6037408452523836	-0.9866713641905718	0.0	1.1084179619155548	-0.3574764410961854	0.0	1.2818443726454647	-0.21864937123058426	0.0	1.2290457829609032	-0.3195374678622621	0.0	1.0178489998723295	-0.36966253699308715	0.0	0.7534080767886364	-0.45052211109865864	0.0	0.5091640188240899	-0.5869204169675739	0.0	1.1133598919517982	-0.4490447381063553	0.0	0.9321928281971085	-0.5626999703386693	0.0	0.987697636969651	-0.7421269276860304	0.0
61	2.0471655328798186	0.7840790807135581	-0.7570854472675856	0.0	0.7325163412300373	-0.7517686356819434	0.0	0.7442252497741649	-1.0774708575268623	0.0	0.628107277643378	-0.9744900765561485	0.0	0.4885078124999999	-1.2011458740234375	0.0			0.0	0.6023291015625004	-0.9143344726562503	0.0	0.8236468895247764	-0.7760726510142408	0.0	0.825641934670687	-1.0738939568745318	0.0	0.6636598403950057	-1.0288977561679338	0.0			0.0	0.6565966796875001	-1.0058969726562503	0.0	0.6037470543766194	-0.9866713935758448	0.0	1.1131697385455401	-0.3680230387969734	0.0	1.2933616916414576	-0.23422097241319756	0.0	1.2362658237050976	-0.3355988613284103	0.0	1.021707167181371	-0.38155024451503283	0.0	0.7573766967556383	-0.4595393481376397	0.0	0.5104173262073515	-0.5919048022539055	0.0	1.1137725708169013	-0.4572042436098645	0.0	0.919646524725333	-0.5658026246595015	0.0	0.9876936520186477	-0.7421264968635275	0.0
62	2.0807256235827665	0.7799962040483583	-0.7585244078202862	0.0	0.7274065118403333	-0.7534578232105054	0.0	0.7382773219914297	-1.0771729111626933	0.0	0.6281200303409055	-0.9744790229881145	0.0	0.4885078124999999	-1.2011458740234375	0.0			0.0	0.6023291015625004	-0.9143344726562503	0.0	0.821426487017372	-0.7783006534539104	0.0	0.8233383931084787	-1.0734467029908057	0.0	0.6644145967793136	-1.0288172753659153	0.0			0.0	0.6565966796875001	-1.0058969726562503	0.0	0.6037611487462968	-0.9866714602787943	0.0	1.1172408244563927	-0.37645206641654044	0.0	1.302662436923558	-0.24661981227850743	0.0	1.2413805670619023	-0.34822916192376907	0.0	1.0244205705823612	-0.3918275999518861	0.0	0.7608553019661258	-0.4679113004081404	0.0	0.5123113413954813	-0.5980889015757175	0.0	1.1147810257822124	-0.4630183717104102	0.0	0.9131872912463429	-0.5665210640373951	0.0	0.9876898481945446	-0.7421263971337405	0.0
